<?xml version="1.0" standalone="no"?>
<!DOCTYPE svg PUBLIC "-//W3C//DTD SVG 20010904//EN"
 "http://www.w3.org/TR/2001/REC-SVG-20010904/DTD/svg10.dtd">
<svg version="1.0" xmlns="http://www.w3.org/2000/svg"
 width="1280.000000pt" height="1280.000000pt" viewBox="0 0 1280.000000 1280.000000"
 preserveAspectRatio="xMidYMid meet">
<g transform="translate(0.000000,1280.000000) scale(0.100000,-0.100000)"
fill="#000000" stroke="none">
<path d="M5675 11295 c-27 -7 -77 -23 -110 -36 -92 -34 -1516 -748 -1640 -822
-288 -171 -474 -363 -604 -625 -87 -173 -138 -314 -301 -822 -44 -140 -85
-266 -90 -280 -5 -14 -39 -119 -75 -235 -37 -115 -86 -271 -110 -345 -230
-710 -300 -933 -314 -992 -14 -61 -14 -167 1 -226 19 -77 97 -146 248 -219
290 -141 605 -239 909 -282 170 -25 202 -26 268 -6 100 30 125 76 208 393 30
112 47 153 59 141 6 -6 24 -274 36 -539 46 -1028 0 -2211 -127 -3270 -49 -409
-50 -436 -25 -493 63 -142 210 -240 503 -337 368 -120 790 -206 1209 -245 91
-8 217 -21 280 -27 164 -18 1073 -17 1245 0 72 7 198 20 280 28 612 59 1294
231 1526 386 111 74 180 165 195 255 5 34 -6 142 -51 478 -16 122 -44 419 -80
855 -57 695 -69 1986 -24 2622 6 89 12 189 14 221 6 122 26 90 87 -140 57
-217 85 -278 143 -310 74 -41 167 -40 415 3 308 55 789 229 948 344 98 71 133
170 112 323 -15 106 -702 2260 -801 2510 -99 248 -209 427 -349 568 -113 113
-182 167 -327 256 -140 85 -1574 801 -1690 843 -61 22 -113 34 -169 37 -73 5
-93 2 -200 -30 -474 -144 -866 -143 -1322 3 -103 34 -192 38 -277 15z"/>
</g>
</svg>
